<svg width="143" height="32" viewBox="0 0 143 32" fill="none" xmlns="http://www.w3.org/2000/svg">
<g clip-path="url(#clip0_1476_17003)">
<path d="M36.823 31.8366C34.9769 31.8366 33.4223 31.4897 32.1398 30.8153C30.8573 30.1408 29.8856 29.1773 29.2249 27.944C28.5642 26.7107 28.2339 25.2654 28.2339 23.6467C28.2339 22.0087 28.5642 20.5634 29.2249 19.3301C29.8856 18.0968 30.8573 17.1332 32.1398 16.4395C33.4223 15.7458 34.9964 15.3796 36.8619 15.3796C38.708 15.3796 40.2626 15.7265 41.5451 16.4395C42.8276 17.1332 43.7993 18.116 44.4405 19.3493C45.0818 20.5827 45.4122 22.0279 45.4122 23.6852C45.4122 25.2846 45.0818 26.7107 44.4211 27.944C43.7604 29.1773 42.7888 30.1408 41.5257 30.8153C40.2431 31.509 38.6885 31.8366 36.823 31.8366ZM36.823 29.0424C38.0278 29.0424 39.0189 28.7919 39.7768 28.3101C40.5346 27.8283 41.0787 27.1732 41.4479 26.3638C41.7977 25.5544 41.9921 24.6487 41.9921 23.6852C41.9921 22.7024 41.8172 21.816 41.4479 20.9873C41.0787 20.1587 40.5346 19.5035 39.7768 19.0025C39.0189 18.5014 38.0473 18.2509 36.823 18.2509C35.6376 18.2509 34.6466 18.5014 33.8887 19.0025C33.1309 19.5035 32.5673 20.1587 32.2175 20.9681C31.8678 21.7774 31.6929 22.6831 31.6929 23.6852C31.6929 24.668 31.8678 25.5544 32.2175 26.3638C32.5673 27.1732 33.1309 27.8283 33.8887 28.3101C34.6466 28.7919 35.6376 29.0424 36.823 29.0424Z" fill="#161414"/>
<path d="M47.4912 31.6631V15.6108H51.9412L57.4018 23.2997L62.7651 15.6108H67.1374V31.6631H63.659V19.4071L57.8293 27.809H56.8188L50.9696 19.3878V31.6631H47.4912Z" fill="#161414"/>
<path d="M69.8965 31.6631V15.6108H73.3749V26.9804C73.5303 26.7299 73.7247 26.4601 73.9773 26.171C74.2299 25.882 74.4242 25.6315 74.5408 25.458L82.6636 15.6108H85.8894V31.6631H82.411V20.3514C82.2361 20.6212 82.0418 20.8717 81.8474 21.1222C81.6531 21.3727 81.4588 21.604 81.2645 21.8159L73.1417 31.6631H69.8965Z" fill="#161414"/>
<path d="M88.6499 31.6631V15.6108H92.1283V22.2784H95.1015L100.057 15.6108H104.04L98.2107 23.2227L104.371 31.6631H100.329L95.4124 25.0534H92.1089V31.6631H88.6499Z" fill="#161414"/>
<path d="M114.689 31.933C113.659 31.933 112.687 31.8174 111.754 31.6054C110.841 31.3742 110.006 31.0466 109.248 30.5841C108.49 30.1216 107.868 29.5435 107.363 28.8497C106.857 28.156 106.508 27.3081 106.294 26.3446H109.87C110.064 26.8649 110.414 27.3274 110.899 27.7128C111.385 28.0982 111.949 28.4065 112.59 28.6185C113.231 28.8497 113.892 28.9461 114.553 28.9461C115.563 28.9461 116.457 28.7919 117.234 28.4643C118.012 28.156 118.614 27.6935 119.061 27.0769C119.508 26.4602 119.741 25.6894 119.741 24.7259C119.741 23.3962 119.294 22.3749 118.4 21.6426C117.506 20.9103 116.321 20.5442 114.864 20.5442C113.989 20.5442 113.173 20.6791 112.415 20.9489C111.657 21.2186 110.977 21.6041 110.336 22.0858H106.974L107.81 10.0803H122.559V13.0287H111.074L110.53 19.0025C111.152 18.5593 111.91 18.2125 112.804 17.9619C113.698 17.7114 114.708 17.6151 115.855 17.6343C117.39 17.6343 118.711 17.9234 119.838 18.4822C120.965 19.0604 121.84 19.8504 122.462 20.8718C123.084 21.8931 123.394 23.1071 123.394 24.4753C123.394 26.0363 123.006 27.3659 122.229 28.4643C121.451 29.5627 120.402 30.4107 119.1 30.9888C117.798 31.644 116.321 31.933 114.689 31.933Z" fill="#161414"/>
<path d="M134.082 31.9138C132.975 31.9138 131.925 31.7982 130.876 31.5862C129.846 31.355 128.913 31.0081 128.097 30.5071C127.281 30.006 126.62 29.3508 126.134 28.5415C125.649 27.7321 125.396 26.7301 125.396 25.5546C125.396 24.7452 125.551 24.0129 125.843 23.3385C126.134 22.6833 126.562 22.1052 127.145 21.6234C127.708 21.1416 128.389 20.7562 129.146 20.4672C128.369 20.0818 127.747 19.6193 127.3 19.0797C126.853 18.5401 126.543 17.962 126.387 17.3646C126.232 16.748 126.154 16.1699 126.154 15.6303C126.154 14.5897 126.387 13.7225 126.834 12.9902C127.281 12.2772 127.883 11.6798 128.661 11.2174C129.419 10.7549 130.274 10.4273 131.226 10.2153C132.178 10.0033 133.15 9.8877 134.16 9.8877C135.151 9.8877 136.123 10.0033 137.055 10.2153C138.008 10.4273 138.843 10.7741 139.621 11.2366C140.378 11.6991 140.981 12.2965 141.447 13.0288C141.894 13.7611 142.127 14.6475 142.127 15.6881C142.127 16.2084 142.05 16.7672 141.875 17.3646C141.7 17.962 141.389 18.5209 140.942 19.0412C140.495 19.5615 139.873 20.024 139.057 20.3901C139.873 20.6791 140.553 21.0646 141.136 21.5849C141.7 22.0859 142.147 22.6833 142.438 23.3577C142.73 24.0322 142.885 24.7838 142.885 25.6124C142.885 26.7686 142.633 27.7514 142.147 28.5608C141.661 29.3701 140.981 30.0253 140.145 30.5263C139.31 31.0274 138.377 31.3935 137.347 31.6055C136.239 31.7982 135.19 31.9138 134.082 31.9138ZM134.082 28.9847C134.626 28.9847 135.19 28.9269 135.773 28.8305C136.356 28.7342 136.9 28.5608 137.425 28.291C137.949 28.0405 138.357 27.6743 138.688 27.2311C139.018 26.7686 139.174 26.2098 139.174 25.516C139.174 24.6681 138.94 23.9937 138.474 23.4926C138.008 22.9916 137.386 22.6255 136.609 22.3942C135.831 22.163 134.996 22.0473 134.102 22.0473C133.227 22.0473 132.392 22.163 131.634 22.3942C130.857 22.6255 130.235 22.9916 129.749 23.4926C129.263 23.9937 129.03 24.6681 129.03 25.516C129.03 26.2098 129.185 26.7879 129.516 27.2311C129.846 27.6936 130.274 28.0405 130.798 28.291C131.323 28.5415 131.886 28.7149 132.469 28.8305C133.014 28.9269 133.558 28.9847 134.082 28.9847ZM134.121 19.3495C134.937 19.3495 135.656 19.2339 136.298 18.9833C136.939 18.7328 137.464 18.386 137.872 17.9042C138.28 17.4224 138.474 16.8443 138.474 16.1506C138.493 15.3412 138.299 14.686 137.91 14.185C137.502 13.684 136.978 13.3178 136.317 13.0866C135.656 12.8553 134.918 12.7397 134.102 12.7397C133.266 12.7397 132.528 12.8553 131.867 13.0866C131.206 13.3178 130.682 13.684 130.312 14.1657C129.943 14.6475 129.749 15.2642 129.749 16.0157C129.749 16.7672 129.943 17.3839 130.351 17.8849C130.759 18.386 131.284 18.7521 131.945 18.9833C132.605 19.2339 133.324 19.3495 134.121 19.3495Z" fill="#161414"/>
<path d="M18.4205 31.6441H7.09137C6.04201 31.6441 5.18699 30.7962 5.18699 29.7556V20.0626C5.18699 19.0412 5.96428 18.1162 6.9942 18.0584C8.10185 18.0006 9.01518 18.8678 9.01518 19.9469V27.8478H18.4205C20.7524 27.8478 22.6373 25.9786 22.6373 23.6661C22.6373 20.3323 19.9168 17.6152 16.5355 17.6152H1.90291C1.28107 17.6152 0.659229 17.3647 0.290013 16.8829C-0.312393 16.0928 -0.21523 15.0522 0.464905 14.3778L14.4757 0.483778C15.2141 -0.248499 16.4384 -0.248499 17.1768 0.483778L28.5253 11.2174C29.2249 11.9112 29.3609 13.0674 28.7391 13.8382C28.0201 14.7246 26.6987 14.7632 25.902 13.9924L15.8165 4.5113L6.41123 13.8382H16.5355C22.0155 13.8382 26.4461 18.2319 26.4461 23.6661C26.4461 28.0791 22.8511 31.6441 18.4205 31.6441Z" fill="#6AB543"/>
</g>
<defs>
<clipPath id="clip0_1476_17003">
<rect width="143" height="32" fill="white"/>
</clipPath>
</defs>
</svg>
