<svg width="207" height="47" viewBox="0 0 207 47" fill="none" xmlns="http://www.w3.org/2000/svg">
<path d="M53.463 46.3936C50.7906 46.3936 48.5402 45.8892 46.6836 44.9083C44.8269 43.9275 43.4204 42.5263 42.464 40.7328C41.5075 38.9392 41.0293 36.8374 41.0293 34.4834C41.0293 32.1014 41.5075 29.9996 42.464 28.2061C43.4204 26.4126 44.8269 25.0114 46.6836 24.0025C48.5402 22.9936 50.8188 22.4612 53.5193 22.4612C56.1917 22.4612 58.4422 22.9656 60.2988 24.0025C62.1554 25.0114 63.5619 26.4406 64.4902 28.2341C65.4186 30.0276 65.8968 32.1294 65.8968 34.5395C65.8968 36.8655 65.4186 38.9392 64.4621 40.7328C63.5057 42.5263 62.0991 43.9275 60.2707 44.9083C58.414 45.9172 56.1636 46.3936 53.463 46.3936ZM53.463 42.3301C55.2071 42.3301 56.6418 41.9658 57.7389 41.2652C58.836 40.5646 59.6236 39.6118 60.1581 38.4348C60.6645 37.2578 60.9458 35.9407 60.9458 34.5395C60.9458 33.1103 60.6926 31.8212 60.1581 30.6161C59.6236 29.4111 58.836 28.4583 57.7389 27.7297C56.6418 27.0011 55.2353 26.6367 53.463 26.6367C51.7471 26.6367 50.3124 27.0011 49.2153 27.7297C48.1182 28.4583 47.3024 29.4111 46.7961 30.5881C46.2897 31.7651 46.0366 33.0822 46.0366 34.5395C46.0366 35.9687 46.2897 37.2578 46.7961 38.4348C47.3024 39.6118 48.1182 40.5646 49.2153 41.2652C50.3124 41.9658 51.7471 42.3301 53.463 42.3301Z" fill="white"/>
<path d="M68.9062 46.1413V22.7974H75.3482L83.2529 33.9789L91.0169 22.7974H97.3463V46.1413H92.3109V28.3181L83.8717 40.5365H82.409L73.9416 28.29V46.1413H68.9062Z" fill="white"/>
<path d="M101.342 46.1413V22.7974H106.377V39.3315C106.602 38.9672 106.884 38.5748 107.249 38.1545C107.615 37.7341 107.896 37.3698 108.065 37.1176L119.824 22.7974H124.493V46.1413H119.458V29.6912C119.205 30.0836 118.923 30.4479 118.642 30.8122C118.361 31.1765 118.08 31.5128 117.798 31.8211L106.04 46.1413H101.342Z" fill="white"/>
<path d="M128.488 46.1413V22.7974H133.524V32.4936H137.828L145.001 22.7974H150.768L142.329 33.8668L151.246 46.1413H145.395L138.278 36.5291H133.496V46.1413H128.488Z" fill="white"/>
<path d="M166.182 46.5337C164.691 46.5337 163.284 46.3656 161.934 46.0573C160.612 45.721 159.402 45.2446 158.305 44.5721C157.208 43.8995 156.308 43.0588 155.576 42.0499C154.845 41.0411 154.339 39.808 154.029 38.4068H159.205C159.487 39.1635 159.993 39.836 160.696 40.3965C161.4 40.957 162.215 41.4054 163.144 41.7136C164.072 42.0499 165.028 42.19 165.985 42.19C167.448 42.19 168.742 41.9658 169.867 41.4894C170.992 41.0411 171.864 40.3685 172.511 39.4717C173.158 38.575 173.496 37.454 173.496 36.0528C173.496 34.1192 172.849 32.6339 171.555 31.569C170.261 30.5041 168.545 29.9716 166.435 29.9716C165.169 29.9716 163.988 30.1678 162.89 30.5601C161.793 30.9525 160.809 31.5129 159.88 32.2135H155.014L156.223 14.7546H177.575V19.0423H160.949L160.162 27.7297C161.062 27.0852 162.159 26.5807 163.453 26.2164C164.747 25.8521 166.21 25.712 167.87 25.74C170.092 25.74 172.005 26.1604 173.636 26.9731C175.268 27.8138 176.534 28.9628 177.434 30.448C178.334 31.9333 178.784 33.6988 178.784 35.6885C178.784 37.9584 178.222 39.8921 177.096 41.4894C175.971 43.0868 174.452 44.3199 172.567 45.1606C170.683 46.1134 168.545 46.5337 166.182 46.5337Z" fill="white"/>
<path d="M194.256 46.5057C192.653 46.5057 191.134 46.3375 189.614 46.0293C188.124 45.693 186.773 45.1886 185.592 44.4599C184.41 43.7313 183.454 42.7785 182.751 41.6015C182.047 40.4245 181.682 38.9673 181.682 37.2578C181.682 36.0808 181.907 35.0159 182.329 34.035C182.751 33.0822 183.369 32.2415 184.213 31.5409C185.029 30.8403 186.014 30.2798 187.111 29.8595C185.986 29.299 185.085 28.6264 184.438 27.8418C183.791 27.0571 183.341 26.2164 183.116 25.3476C182.891 24.4509 182.779 23.6102 182.779 22.8255C182.779 21.3122 183.116 20.0511 183.763 18.9862C184.41 17.9493 185.282 17.0806 186.408 16.408C187.505 15.7354 188.742 15.259 190.121 14.9508C191.499 14.6425 192.906 14.4744 194.369 14.4744C195.803 14.4744 197.21 14.6425 198.56 14.9508C199.938 15.259 201.148 15.7635 202.273 16.436C203.37 17.1086 204.242 17.9774 204.918 19.0423C205.565 20.1072 205.902 21.3963 205.902 22.9096C205.902 23.6662 205.79 24.4789 205.536 25.3476C205.283 26.2164 204.833 27.0291 204.186 27.7857C203.539 28.5424 202.639 29.2149 201.457 29.7474C202.639 30.1678 203.624 30.7282 204.467 31.4849C205.283 32.2135 205.93 33.0822 206.352 34.0631C206.774 35.0439 206.999 36.1368 206.999 37.3419C206.999 39.0233 206.634 40.4525 205.93 41.6295C205.227 42.8065 204.242 43.7593 203.033 44.488C201.823 45.2166 200.473 45.749 198.982 46.0573C197.379 46.3375 195.859 46.5057 194.256 46.5057ZM194.256 42.246C195.044 42.246 195.859 42.162 196.703 42.0219C197.547 41.8817 198.335 41.6295 199.095 41.2372C199.854 40.8729 200.445 40.3404 200.923 39.6959C201.401 39.0233 201.626 38.2106 201.626 37.2017C201.626 35.9687 201.289 34.9879 200.614 34.2592C199.938 33.5306 199.038 32.9982 197.913 32.6619C196.788 32.3256 195.578 32.1574 194.284 32.1574C193.018 32.1574 191.809 32.3256 190.712 32.6619C189.586 32.9982 188.686 33.5306 187.983 34.2592C187.28 34.9879 186.942 35.9687 186.942 37.2017C186.942 38.2106 187.167 39.0513 187.645 39.6959C188.124 40.3685 188.742 40.8729 189.502 41.2372C190.261 41.6015 191.077 41.8537 191.921 42.0219C192.709 42.162 193.497 42.246 194.256 42.246ZM194.312 28.2341C195.494 28.2341 196.535 28.066 197.463 27.7016C198.391 27.3373 199.151 26.8329 199.742 26.1323C200.332 25.4317 200.614 24.591 200.614 23.5821C200.642 22.4051 200.36 21.4523 199.798 20.7237C199.207 19.9951 198.448 19.4626 197.491 19.1263C196.535 18.79 195.466 18.6219 194.284 18.6219C193.075 18.6219 192.006 18.79 191.049 19.1263C190.093 19.4626 189.333 19.9951 188.799 20.6957C188.264 21.3963 187.983 22.293 187.983 23.386C187.983 24.4789 188.264 25.3757 188.855 26.1043C189.446 26.8329 190.205 27.3654 191.162 27.7016C192.118 28.066 193.159 28.2341 194.312 28.2341Z" fill="white"/>
<path d="M26.8233 46.1133H10.4232C8.90412 46.1133 7.66637 44.8803 7.66637 43.367V29.271C7.66637 27.7857 8.7916 26.4406 10.2825 26.3565C11.886 26.2724 13.2081 27.5335 13.2081 29.1028V40.5926H26.8233C30.199 40.5926 32.9277 37.8743 32.9277 34.5114C32.9277 29.6633 28.9894 25.7119 24.0947 25.7119H2.91229C2.01211 25.7119 1.11193 25.3476 0.577452 24.647C-0.294598 23.498 -0.153944 21.9847 0.830628 21.0039L21.1128 0.798681C22.1818 -0.266227 23.954 -0.266227 25.023 0.798681L41.4513 16.408C42.464 17.4169 42.6609 19.0983 41.7607 20.2192C40.7199 21.5083 38.807 21.5644 37.6536 20.4434L23.0538 6.65568L9.4386 20.2192H24.0947C32.0275 20.2192 38.4413 26.6087 38.4413 34.5114C38.4413 40.9289 33.2371 46.1133 26.8233 46.1133Z" fill="#6AB543"/>
</svg>
