<svg width="75" height="24" viewBox="0 0 75 24" fill="none" xmlns="http://www.w3.org/2000/svg">
<g clip-path="url(#clip0_3990_465)">
<path d="M75 24.067H0V18.5518H1.12813V22.8798H73.8719V18.5518H75V24.067Z" fill="#B9C0C0"/>
<path d="M16.3301 18.3703L16.312 9.96932L12.17 16.9218H11.1254L6.98337 10.0779V18.3703H4.75024V5.69641H6.67722L11.6838 14.0974L16.6002 5.69641H18.5271L18.5451 18.3703H16.3301Z" fill="#B9C0C0"/>
<path d="M30.1271 15.437H23.8237L22.5812 18.3701H20.168L25.8408 5.69629H28.146L33.8369 18.3701H31.3877L30.1271 15.437ZM29.3526 13.5903L26.9755 8.05L24.6164 13.5903H29.3526Z" fill="#B9C0C0"/>
<path d="M37.3635 7.68801H33.1855V5.69641H43.8828V7.68801H39.7048V18.3703H37.3635V7.68801Z" fill="#B9C0C0"/>
<path d="M51.2979 18.5516C50.0253 18.5516 48.8728 18.274 47.8402 17.7187C46.8198 17.1515 46.0153 16.3728 45.4269 15.3831C44.8505 14.3933 44.5625 13.2768 44.5625 12.0336C44.5625 10.7904 44.8567 9.67384 45.445 8.68409C46.0334 7.69431 46.8376 6.92182 47.858 6.36657C48.8907 5.79928 50.0432 5.51562 51.316 5.51562C52.3484 5.51562 53.2909 5.69668 54.1432 6.0588C54.9957 6.42089 55.7161 6.94596 56.3044 7.63397L54.7916 9.06431C53.8792 8.07453 52.7566 7.57965 51.4239 7.57965C50.5596 7.57965 49.7851 7.77278 49.1009 8.15903C48.4164 8.53321 47.8821 9.05826 47.498 9.73421C47.1138 10.4101 46.9216 11.1766 46.9216 12.0336C46.9216 12.8906 47.1138 13.6571 47.498 14.333C47.8821 15.009 48.4164 15.54 49.1009 15.9262C49.7851 16.3005 50.5596 16.4876 51.4239 16.4876C52.7566 16.4876 53.8792 15.9867 54.7916 14.9847L56.3044 16.4332C55.7161 17.1212 54.9896 17.6463 54.1252 18.0084C53.2728 18.3706 52.3305 18.5516 51.2979 18.5516Z" fill="#B9C0C0"/>
<path d="M69.7486 5.69629V18.3701H67.4075V12.9385H60.8882V18.3701H58.5469V5.69629H60.8882V10.9288H67.4075V5.69629H69.7486Z" fill="#B9C0C0"/>
<path d="M75 5.5152H73.8719V1.18709H1.12813V5.5152H0V0H75V5.5152Z" fill="#B9C0C0"/>
</g>
<defs>
<clipPath id="clip0_3990_465">
<rect width="75" height="24" fill="white"/>
</clipPath>
</defs>
</svg>
