<svg width="24" height="24" viewBox="0 0 24 24" fill="none" xmlns="http://www.w3.org/2000/svg">
<rect width="24" height="24" rx="12" fill="#62C03D"/>
<path d="M18.4925 14.9426C18.3811 15.7895 17.9651 16.5669 17.3224 17.1295C16.6797 17.6922 15.8542 18.0016 15 18.0001C10.0375 18.0001 6.00001 13.9626 6.00001 9.00012C5.99847 8.14592 6.30794 7.32038 6.87059 6.67768C7.43324 6.03497 8.21061 5.61906 9.05751 5.50762C9.27166 5.48147 9.48854 5.52528 9.67575 5.63252C9.86296 5.73975 10.0105 5.90466 10.0963 6.10262L11.4163 9.04949V9.05699C11.4819 9.20853 11.5091 9.37397 11.4952 9.53854C11.4814 9.70311 11.427 9.86169 11.3369 10.0001C11.3256 10.017 11.3138 10.0326 11.3013 10.0482L10 11.5907C10.4681 12.542 11.4631 13.5282 12.4269 13.9976L13.9481 12.7032C13.9631 12.6907 13.9787 12.679 13.995 12.6682C14.1333 12.576 14.2924 12.5197 14.458 12.5044C14.6235 12.4891 14.7903 12.5154 14.9431 12.5807L14.9513 12.5845L17.8956 13.9039C18.0939 13.9894 18.2592 14.1367 18.3668 14.324C18.4744 14.5112 18.5185 14.7282 18.4925 14.9426Z" fill="white"/>
</svg>
